<?xml version="1.0" encoding="UTF-8"?>
<svg version="1.1" xmlns="http://www.w3.org/2000/svg" width="1024" height="1024">
<path d="M0 0 C0.88444794 -0.00570007 1.76889587 -0.01140015 2.68014526 -0.01727295 C4.554655 -0.02672131 6.42918134 -0.03325628 8.30371094 -0.03710938 C11.14808927 -0.04676771 13.99173019 -0.0777727 16.8359375 -0.109375 C18.66145407 -0.11591024 20.48697578 -0.12115866 22.3125 -0.125 C23.15346222 -0.1373468 23.99442444 -0.1496936 24.86087036 -0.16241455 C30.62403951 -0.14107452 35.94281609 0.37189117 41.0546875 3.203125 C45.48630914 8.27852691 47.3561405 14.49072621 49.03051758 20.8840332 C49.28046132 21.79808835 49.53040506 22.7121435 49.78792286 23.65389729 C50.55994599 26.49955844 51.31070785 29.3500143 52.0546875 32.203125 C52.28217556 33.06993771 52.50966362 33.93675041 52.74404526 34.82983017 C54.35099655 40.9792034 55.89995102 47.14253793 57.44140625 53.30859375 C57.94130357 55.29695967 58.44154736 57.28523851 58.94210815 59.2734375 C59.99906148 63.47371243 61.05416721 67.67444479 62.10769653 71.87557983 C64.88654686 82.95556593 67.67798353 94.03238551 70.46875 105.109375 C70.88814818 106.7746779 70.88814818 106.7746779 71.31601906 108.47362328 C77.23999088 131.99255281 83.25567155 155.48742918 89.31487751 178.97184086 C90.20914997 182.43812099 91.10282005 185.90455611 91.99609375 189.37109375 C92.24899327 190.35228967 92.24899327 190.35228967 92.50700188 191.35330772 C96.43837948 206.61598428 100.25429022 221.90737819 104.0546875 237.203125 C106.33094167 230.77054414 108.09207848 224.3139482 109.63232422 217.66992188 C109.87253516 216.64918485 110.11274611 215.62844782 110.36023617 214.57677937 C111.1555774 211.19272715 111.94496847 207.80731609 112.734375 204.421875 C113.30062217 202.00745429 113.86725597 199.59312424 114.43424988 197.17887878 C115.64223282 192.03194657 116.84775568 186.88444797 118.05105591 181.73641968 C119.77683 174.35343663 121.50783193 166.97168707 123.24041188 159.59029853 C124.03608996 156.20042429 124.83158029 152.81050598 125.62702942 149.420578 C125.86383125 148.41141192 125.86383125 148.41141192 126.10541695 147.38185865 C127.70474733 140.5654461 129.30219605 133.7485929 130.8995055 126.93170655 C135.61634317 106.80167075 140.3395686 86.67314118 145.07923889 66.54846764 C146.42332775 60.84105201 147.7644972 55.13296194 149.10320187 49.42428112 C149.9260207 45.91823834 150.75138646 42.41279888 151.57747841 38.90752602 C151.95294347 37.3121231 152.32738732 35.71647941 152.70067406 34.12056541 C158.4342657 9.61561911 158.4342657 9.61561911 163.0546875 4.203125 C169.05960208 0.57515578 174.13865079 0.04550921 181.0390625 0.03515625 C181.81348694 0.03182785 182.58791138 0.02849945 183.38580322 0.02507019 C185.02314665 0.02001514 186.66050034 0.01766143 188.29785156 0.01782227 C190.78207768 0.01564482 193.26585291 -0.00250072 195.75 -0.02148438 C197.34635266 -0.02442054 198.94270742 -0.02640384 200.5390625 -0.02734375 C201.63948883 -0.03812202 201.63948883 -0.03812202 202.762146 -0.04911804 C208.87735925 -0.02251539 214.73137941 0.51344639 219.8046875 4.203125 C225.46379875 11.74860666 227.25452473 21.30433259 229.34423828 30.33520508 C229.79964823 32.260658 229.79964823 32.260658 230.26425838 34.22500896 C231.09465216 37.7367668 231.9154433 41.25070551 232.73448682 44.76512527 C233.60907943 48.5103065 234.49262968 52.25337445 235.37510681 55.9967041 C237.06982053 63.19155244 238.75642241 70.38827765 240.44021088 77.58568966 C242.36914442 85.82924787 244.30705903 94.0706864 246.24548447 102.31201684 C250.70160052 121.2591743 255.14217406 140.20995801 259.57706165 159.16209412 C260.31940153 162.33432321 261.06190949 165.50651296 261.80438232 168.67871094 C269.72256465 202.51216416 269.72256465 202.51216416 272.7665205 215.60634041 C273.43064554 218.46300523 274.0956501 221.31946501 274.76068306 224.17591858 C275.19660967 226.05049584 275.63092521 227.92544754 276.06517029 229.80041504 C276.44295372 231.42348572 276.44295372 231.42348572 276.82836914 233.0793457 C277.04336563 234.0062471 277.25836212 234.9331485 277.47987366 235.88813782 C278.05598147 238.3374924 278.05598147 238.3374924 279.0546875 241.203125 C279.39816475 239.85680748 279.39816475 239.85680748 279.74858093 238.48329163 C292.31497426 189.23180176 304.92984867 139.993394 317.74110603 90.80495644 C320.38337616 80.65956523 323.00687055 70.50962867 325.60720825 60.35340881 C326.89730587 55.31595029 328.19581925 50.28067517 329.49710655 45.24609661 C330.35226463 41.93562481 331.20314022 38.62419631 332.04290771 35.30978394 C332.95213435 31.72952567 333.87658359 28.1535284 334.8046875 24.578125 C335.06210724 23.54776627 335.31952698 22.51740753 335.58474731 21.45582581 C337.48376963 14.23244434 339.61274825 6.45092206 346.1171875 2.203125 C351.43654879 0.3922786 356.18887715 0.0292011 361.80078125 0 C362.64890884 -0.00570007 363.49703644 -0.01140015 364.37086487 -0.01727295 C366.16202554 -0.02670407 367.95320342 -0.03324942 369.74438477 -0.03710938 C372.47898625 -0.04682808 375.21283996 -0.0778741 377.94726562 -0.109375 C379.69009972 -0.11590438 381.43293917 -0.12115511 383.17578125 -0.125 C383.990504 -0.1373468 384.80522675 -0.1496936 385.64463806 -0.16241455 C390.26243651 -0.14435841 393.32421559 0.17443388 397.0546875 3.203125 C401.12987037 10.84409287 397.26225467 19.92923971 395.04281616 27.78439331 C393.89665931 31.54836767 392.70859722 35.29746774 391.50390625 39.04296875 C391.05261508 40.46348475 390.60197104 41.88420647 390.1519165 43.30511475 C389.19090468 46.33551992 388.22613719 49.36469117 387.25827026 52.39291382 C384.90848706 59.74621775 382.57947859 67.10611652 380.24836922 74.46535683 C379.44110072 77.01329339 378.63309474 79.56099534 377.82505798 82.10868835 C372.69786089 98.28404161 367.67278263 114.4903647 362.66740036 130.70375061 C360.62816756 137.30840265 358.5864127 143.91227473 356.54296875 150.515625 C356.31825457 151.24180275 356.09354038 151.9679805 355.86201668 152.71616364 C352.38453089 163.94959703 348.87649121 175.17322114 345.34765625 186.390625 C345.11185978 187.14020603 344.87606331 187.88978706 344.63312149 188.66208267 C342.29342221 196.09832738 339.95041413 203.53352455 337.60416985 210.96770668 C333.10149211 225.23762664 328.63258693 239.5154855 324.29296875 253.8359375 C323.92246399 255.05531509 323.55195923 256.27469269 323.17022705 257.53102112 C321.45466006 263.17920991 319.74892522 268.82995649 318.06298828 274.48706055 C317.46557851 276.46154965 316.86778365 278.43592229 316.26953125 280.41015625 C316.01528885 281.2786319 315.76104645 282.14710754 315.49909973 283.04190063 C313.35509927 290.05560489 310.79084052 296.92299748 305.0546875 301.703125 C299.57022284 304.44535733 294.28714486 304.36279448 288.28125 304.37109375 C287.4392807 304.37442215 286.5973114 304.37775055 285.72982788 304.38117981 C283.95302881 304.3862297 282.1762203 304.38858874 280.39941406 304.38842773 C277.69580287 304.39061198 274.99260149 304.40878204 272.2890625 304.42773438 C270.55729305 304.43066924 268.82552168 304.43265341 267.09375 304.43359375 C266.29248688 304.44077927 265.49122375 304.44796478 264.66567993 304.45536804 C253.55436003 304.41063106 253.55436003 304.41063106 249.50925922 300.83832932 C245.47636226 296.32101239 243.77517017 292.38393722 242.4855957 286.51538086 C242.28614255 285.68835883 242.0866894 284.8613368 241.88119221 284.0092535 C241.46396906 282.27306893 241.05517251 280.53483915 240.65454483 278.79475021 C240.08069444 276.31548545 239.47910567 273.84516793 238.86434937 271.37576294 C237.60756826 266.32478969 236.38284081 261.26634953 235.16015625 256.20703125 C234.69458403 254.28638462 234.22887128 252.36577206 233.76303101 250.44519043 C232.51313878 245.2896633 231.26574769 240.13353417 230.01897049 234.97725296 C229.23799099 231.74827443 228.45626415 228.51947775 227.67428589 225.29074097 C218.21620143 186.23794979 208.82514362 147.16909895 199.4597168 108.09399414 C199.21131168 107.05759481 198.96290657 106.02119549 198.70697403 104.95339012 C197.54230333 100.09382227 196.3779479 95.23417926 195.21420288 90.37438965 C195.00654454 89.50750991 194.7988862 88.64063017 194.58493519 87.74748135 C194.20159707 86.14720232 193.81841133 84.54688677 193.43541241 82.94652653 C192.65638096 79.69492822 191.86917008 76.4460147 191.0546875 73.203125 C188.75036738 79.72097659 186.96134062 86.27509878 185.36938477 92.99926758 C185.11783379 94.04742991 184.86628281 95.09559225 184.60710907 96.17551708 C183.77460878 99.64865972 182.94781663 103.12313426 182.12109375 106.59765625 C181.52966442 109.07071743 180.93789563 111.54369744 180.34580994 114.01660156 C179.08627912 119.28050263 177.82919922 124.54497946 176.57421875 129.80996704 C174.7775173 137.34727809 172.97459042 144.88309056 171.17047143 152.41862905 C165.26587844 177.08399377 159.38198715 201.75405132 153.57847404 226.44342995 C152.8745884 229.43629787 152.16944108 232.42886528 151.46376038 235.42131042 C151.23883502 236.37516538 151.01390966 237.32902033 150.78216839 238.31177998 C150.34062756 240.18409343 149.8990249 242.0563923 149.45735645 243.92867565 C148.20428961 249.24474787 146.96087736 254.56296027 145.72492313 259.88303566 C144.96620935 263.13987169 144.19918178 266.39470896 143.42996407 269.64907837 C143.08445642 271.11884439 142.74245626 272.58944091 142.40455437 274.06097412 C137.29395838 296.30084732 137.29395838 296.30084732 132.08532715 300.96760559 C128.84990524 302.93616095 126.19926471 303.33511682 122.49487305 303.38012695 C121.57349045 303.39296219 120.65210785 303.40579742 119.70280457 303.41902161 C118.2121624 303.43010201 118.2121624 303.43010201 116.69140625 303.44140625 C115.66666702 303.449478 114.6419278 303.45754974 113.58613586 303.46586609 C111.41657195 303.47969942 109.24698634 303.49042493 107.07739258 303.49829102 C103.76536691 303.51550453 100.45433931 303.55939824 97.14257812 303.60351562 C95.0338615 303.61364275 92.9251364 303.62215879 90.81640625 303.62890625 C89.8287175 303.64641434 88.84102875 303.66392242 87.82341003 303.68196106 C82.06863391 303.66387417 78.49046098 303.24477557 74.0546875 299.203125 C69.85647924 294.1826562 68.27392513 288.42963169 66.3984375 282.2734375 C66.05687622 281.17903351 65.71531494 280.08462952 65.36340332 278.95706177 C64.24957484 275.37569171 63.15099337 271.78989467 62.0546875 268.203125 C61.31256852 265.79132006 60.57038044 263.37953638 59.828125 260.96777344 C57.60656575 253.72819934 55.40587857 246.48239422 53.20891953 239.23532867 C52.07727705 235.50395629 50.94341564 231.77325816 49.80981445 228.04248047 C47.8781366 221.68425139 45.94768227 215.32565202 44.01806641 208.96679688 C41.07826203 199.27921356 38.13513808 189.5926405 35.19140625 179.90625 C34.20302166 176.65381527 33.21466267 173.40137275 32.22631836 170.14892578 C31.85773319 168.93598563 31.85773319 168.93598563 31.48170185 167.69854164 C28.72921958 158.64040722 25.97784653 149.58193593 23.2265625 140.5234375 C22.21028794 137.17740841 21.19401219 133.83137967 20.17773438 130.48535156 C19.92348222 129.64824205 19.66923006 128.81113255 19.40727329 127.94865608 C15.06026683 113.63653709 10.71249425 99.3246508 6.36466694 85.01278114 C4.81621514 79.91568707 3.26782316 74.81857483 1.71951389 69.72143745 C1.23202749 68.11664651 0.74451652 66.51186303 0.25697994 64.90708733 C-0.89808248 61.10508235 -2.05288084 57.30299774 -3.20698547 53.5007019 C-5.17766189 47.00959856 -7.15257678 40.51992142 -9.14404297 34.03515625 C-9.6372831 32.42592285 -9.6372831 32.42592285 -10.14048767 30.78417969 C-10.73359854 28.85059975 -11.32860749 26.91760038 -11.92604065 24.98535156 C-16.58301312 9.79046921 -16.58301312 9.79046921 -13.6328125 3.328125 C-10.22307274 -0.96562137 -5.03958387 0.02510541 0 0 Z " fill="#FFFFFF" transform="translate(334.9453125,263.796875)"/>
<path d="M0 0 C3.95548976 1.62292175 7.587737 3.67923259 11.25845337 5.86502075 C14.42163904 7.74548821 17.62891966 9.5489334 20.828125 11.3671875 C21.4957637 11.74933914 22.1634024 12.13149078 22.85127258 12.52522278 C92.05553715 52.02802408 168.24549423 80.33688873 245 101 C246.05592346 101.28589996 246.05592346 101.28589996 247.13317871 101.57757568 C312.26412219 119.18905487 379.5199561 129.54263762 446.81576538 133.85925293 C448.24569089 133.95139405 449.675415 134.0467296 451.10488892 134.14562988 C469.51758857 135.39814767 487.99148919 135.24568934 506.4375 135.25 C507.73760576 135.25066278 507.73760576 135.25066278 509.06397629 135.25133896 C535.93645632 135.25851158 562.65393025 134.88194491 589.41992188 132.25323486 C592.1113975 131.98906633 594.80366946 131.73428467 597.49609375 131.47998047 C683.81452379 123.21832937 768.34494382 103.7651574 877.51171875 63.90234375 C878.72851318 63.39582275 879.94530762 62.88930176 881.19897461 62.36743164 C883.48824695 61.40529195 885.7721237 60.43016099 888.04907227 59.43920898 C895.70638088 56.1975292 903.14579833 53.59408181 911.375 56.125 C915.64073732 57.9950303 917.93371332 60.86742663 920 65 C920.52549647 69.78977114 920.56995506 73.7888455 918.5 78.1875 C912.19780959 85.27746421 904.63649457 90.50038828 896.75 95.6875 C895.69876953 96.38302979 894.64753906 97.07855957 893.56445312 97.79516602 C883.88024408 104.1590122 874.02320791 110.18755565 864 116 C863.34757324 116.38140137 862.69514648 116.76280273 862.02294922 117.15576172 C857.39325663 119.85430088 852.71233271 122.4488172 848 125 C847.08524902 125.49693359 846.17049805 125.99386719 845.22802734 126.50585938 C770.17919121 167.01263083 686.72021784 190.86136799 540 210 C539.12134277 210.05784668 538.24268555 210.11569336 537.33740234 210.17529297 C503.97261121 212.30684455 470.32213935 211.38518541 437 209 C436.31520569 208.9514386 435.63041138 208.9028772 434.92486572 208.85284424 C352.61694654 202.93160801 270.41053961 182.764424 23 46 C22.14535156 45.30777344 21.29070313 44.61554687 20.41015625 43.90234375 C10.84446239 36.12078217 1.36934002 28.24032656 -7.75 19.9375 C-8.26361084 19.47230957 -8.77722168 19.00711914 -9.30639648 18.52783203 C-13.8399187 14.35937888 -13.8399187 14.35937888 -14.23828125 10.9765625 C-14.35471395 7.28748419 -14.39351073 4.7333609 -12.625 1.4375 C-8.4326905 -0.85828853 -4.67574667 -0.7568962 0 0 Z " fill="#FF9900" transform="translate(14,658)"/>
<path d="M0 0 C18.57996609 17.54600508 26.74796452 44.32560116 28.18853569 69.26380348 C28.260709 72.52208241 28.27869138 75.77536366 28.27124023 79.03442383 C28.27646698 80.25452148 28.28169373 81.47461914 28.28707886 82.73168945 C28.29987514 86.03618256 28.30436295 89.34056597 28.30592227 92.6450789 C28.31045646 96.14474701 28.32850133 99.64434186 28.34571838 103.14396667 C28.39450263 113.52924189 28.42559713 123.91455998 28.44702148 134.29992676 C28.46370008 142.37066848 28.48695195 150.44127142 28.53004223 158.51192111 C28.54795112 161.972789 28.56047364 165.43346998 28.55874443 168.8943882 C28.56016069 196.92810505 29.88755374 222.1716935 43.05322266 247.30615234 C45.68093702 252.50709186 46.66398315 256.16067157 46 262 C42.68642177 269.45555101 33.64591687 273.62824294 26.9375 277.60546875 C24.25158971 279.19890618 21.7075698 280.89389193 19.1875 282.73828125 C14.62930231 285.97259064 10.51038937 286.92644024 5 286 C-9.76890685 280.38403542 -18.1555777 259.96134635 -25 247 C-25.63164062 247.73863281 -26.26328125 248.47726562 -26.9140625 249.23828125 C-47.57878299 272.87978968 -77.45046197 289.33858675 -109 292 C-138.61914656 293.62851453 -167.10004092 290.82306569 -190.25 270.5625 C-191.84959497 269.05877981 -193.43420857 267.5388878 -195 266 C-195.93972656 265.07960938 -195.93972656 265.07960938 -196.8984375 264.140625 C-214.25240266 245.76583836 -218.94220928 220.38831654 -218.34375 196.01171875 C-217.4628713 176.33980973 -211.64384798 158.25327251 -199 143 C-198.32324219 142.16082031 -197.64648438 141.32164062 -196.94921875 140.45703125 C-178.86346735 119.13105383 -151.24166621 108.05560136 -123.86791992 105.19848633 C-91.48662812 102.95740433 -60.60479702 107.54818872 -29 114 C-27.41937274 74.52687116 -27.41937274 74.52687116 -42.86328125 39.5234375 C-44 38 -44 38 -44 36 C-44.56847656 35.72929687 -45.13695312 35.45859375 -45.72265625 35.1796875 C-48.07261934 33.96238243 -50.22011936 32.56835401 -52.4375 31.125 C-76.86394306 16.46198147 -112.29911861 19.86078994 -138.8359375 26.40625 C-151.50494652 29.70266014 -163.73767541 33.90686751 -175.87915039 38.79907227 C-182.21024656 41.2796772 -187.18287946 42.82487159 -194 42 C-195.88928342 40.42203143 -196.89755591 39.20488818 -198 37 C-198.23505606 32.79035962 -198.22842647 28.57674924 -198.24023438 24.36132812 C-198.24989952 22.27172421 -198.2809027 20.18312131 -198.3125 18.09375 C-198.31903453 16.75521415 -198.32428323 15.41667129 -198.328125 14.078125 C-198.34214355 12.25909668 -198.34214355 12.25909668 -198.35644531 10.40332031 C-197.80423215 5.13081927 -196.02011326 1.97988344 -192.2265625 -1.6640625 C-143.33845057 -37.05763506 -46.52074552 -40.101983 0 0 Z M-144.9375 162.4375 C-154.11115726 172.52406975 -158.14737451 185.42516988 -158 199 C-157.07481079 213.41871802 -154.0931243 225.91534155 -143 236 C-142.45859375 236.49628906 -141.9171875 236.99257813 -141.359375 237.50390625 C-131.18453003 246.03282042 -116.8731157 247.8119511 -104 247 C-79.98965753 244.52018875 -56.50919886 236.55379092 -40.625 217.34765625 C-29.95882447 201.9381094 -27.81184125 185.30751379 -27.9375 167 C-27.94426758 165.12248047 -27.94426758 165.12248047 -27.95117188 163.20703125 C-27.96288585 160.13797059 -27.97928927 157.06901093 -28 154 C-62.1020945 144.49771907 -116.54977683 135.64046821 -144.9375 162.4375 Z " fill="#FFFFFF" transform="translate(260,283)"/>
<path d="M0 0 C0.82277435 0.00337372 1.64554871 0.00674744 2.49325562 0.01022339 C28.28046754 0.16239062 65.89442414 2.54241006 86.015625 20.7734375 C93.01316377 28.3337154 92.64743699 34.3067624 92.6875 44.3125 C92.7184375 46.23255859 92.7184375 46.23255859 92.75 48.19140625 C92.75773437 50.04185547 92.75773437 50.04185547 92.765625 51.9296875 C92.7749707 53.05745605 92.78431641 54.18522461 92.79394531 55.34716797 C92.39253425 58.82734685 91.58290537 60.6852443 89.4375 63.4375 C80.76151759 66.38406006 72.40911468 61.53419649 64.41796875 58.1640625 C35.13365596 46.11258908 -3.0651813 42.37375437 -33.12109375 53.7890625 C-42.88475716 58.34787663 -48.82385247 63.81245172 -52.6796875 73.98828125 C-54.96326626 82.91040533 -54.92784865 92.86831374 -50.875 101.26953125 C-37.08843567 124.04198126 -3.10690244 129.69112173 20.56817627 137.08325195 C83.75174994 156.81843501 83.75174994 156.81843501 99.625 184.6875 C110.93078895 206.74457053 112.88217352 230.74781359 105.4375 254.4375 C97.51183944 278.11541093 79.50012019 295.50195679 57.5625 306.6875 C38.2553355 316.10785975 15.92813416 321.17914265 -5.5625 321.4375 C-6.88544067 321.4540564 -6.88544067 321.4540564 -8.23510742 321.47094727 C-40.82333304 321.70053473 -84.05820671 317.61803675 -110.5625 296.4375 C-116.42487175 290.13545036 -115.8109942 283.80459222 -115.85766602 275.66845703 C-115.86919338 274.26796369 -115.8896577 272.86751455 -115.91918945 271.46728516 C-115.96195674 269.43882542 -115.97804464 267.4116676 -115.98828125 265.3828125 C-116.00286377 264.17125488 -116.01744629 262.95969727 -116.0324707 261.71142578 C-115.46919714 257.78753045 -114.42430594 256.14560763 -111.5625 253.4375 C-104.56538511 251.08156311 -96.75758297 255.39894514 -90.4375 258.0625 C-78.33509037 262.92250925 -66.31953781 266.7287185 -53.5625 269.4375 C-52.33080078 269.70216064 -52.33080078 269.70216064 -51.07421875 269.97216797 C-39.21246427 272.3890723 -27.31612194 272.73651624 -15.25 272.8125 C-14.54024017 272.8205365 -13.83048035 272.828573 -13.09921265 272.83685303 C5.7075672 272.99856035 25.78992626 270.28308751 40.4375 257.4375 C48.99462769 248.45979515 51.40724327 239.72173106 51.4375 227.4375 C50.82972218 219.03431098 46.59303336 211.1530953 40.5625 205.3125 C22.89016497 191.87104179 -1.49093572 186.80456538 -22.4140625 180.41796875 C-66.33442873 166.97567239 -66.33442873 166.97567239 -82.5625 153.4375 C-83.19800781 152.95023438 -83.83351563 152.46296875 -84.48828125 151.9609375 C-99.55615786 140.000184 -109.6795785 119.49958625 -112.28125 100.6875 C-114.23382601 78.1243994 -109.7310335 55.97981511 -94.90234375 38.14453125 C-81.79501665 23.09358234 -66.052369 13.10517629 -47.25 6.625 C-46.45787109 6.34696533 -45.66574219 6.06893066 -44.84960938 5.7824707 C-30.25167868 1.02888205 -15.25303275 -0.12269627 0 0 Z " fill="#FFFFFF" transform="translate(872.5625,255.5625)"/>
<path d="M0 0 C57.78441175 -1.32297329 57.78441175 -1.32297329 76.78759766 13.49951172 C85.08468483 24.83886419 81.4615977 46.24249949 79.58447266 59.33178711 C72.90832485 99.54682865 56.95652308 141.97323024 28.60400391 171.99951172 C26.87586835 173.83543842 25.30045943 175.72110065 23.72509766 177.68701172 C19.65795147 182.49884664 14.31610851 187.23525629 8.66259766 190.06201172 C1.44971751 190.63446252 1.44971751 190.63446252 -1.39990234 188.56201172 C-4.27347644 180.89914745 0.69354401 172.45596699 3.60888672 165.41217041 C28.65646051 110.45576419 28.65646051 110.45576419 28.85791016 52.98779297 C25.90658445 48.23287933 19.40143211 46.5493667 14.27587891 45.11279297 C-20.0346511 37.37499467 -58.49320776 42.73015217 -93.01733398 47.23510742 C-98.71789736 47.94449233 -103.68715925 48.22968538 -109.33740234 47.06201172 C-111.33740234 45.06201172 -111.33740234 45.06201172 -111.89990234 41.93701172 C-111.0692946 36.21504724 -108.73029135 33.71615663 -104.33740234 30.06201172 C-75.03778829 8.9697673 -35.46967843 0.94101716 0 0 Z " fill="#FF9900" transform="translate(943.33740234375,636.93798828125)"/>
</svg>
