<?xml version="1.0" encoding="UTF-8"?>
<svg version="1.1" xmlns="http://www.w3.org/2000/svg" width="2560" height="1920">
<path d="M0 0 C3.60450784 0.00849376 7.20741543 -0.02034824 10.81176758 -0.05200195 C80.09366074 -0.26176534 135.80544132 32.69698625 189.1015625 73.48388672 C194.83668277 77.8662098 200.6158558 82.18113718 206.4387207 86.44604492 C214.06612087 92.03266912 221.59516635 97.73880831 229.1027832 103.48510742 C234.83774798 107.86668818 240.61631633 112.1814745 246.4387207 116.44604492 C254.06612087 122.03266912 261.59516635 127.73880831 269.1027832 133.48510742 C274.83774798 137.86668818 280.61631633 142.1814745 286.4387207 146.44604492 C294.06612087 152.03266912 301.59516635 157.73880831 309.1027832 163.48510742 C314.83774798 167.86668818 320.61631633 172.1814745 326.4387207 176.44604492 C334.06612087 182.03266912 341.59516635 187.73880831 349.1027832 193.48510742 C354.83774798 197.86668818 360.61631633 202.1814745 366.4387207 206.44604492 C374.06612087 212.03266912 381.59516635 217.73880831 389.1027832 223.48510742 C394.83774798 227.86668818 400.61631633 232.1814745 406.4387207 236.44604492 C414.06612087 242.03266912 421.59516635 247.73880831 429.1027832 253.48510742 C434.83774798 257.86668818 440.61631633 262.1814745 446.4387207 266.44604492 C454.06612087 272.03266912 461.59516635 277.73880831 469.1027832 283.48510742 C474.83774798 287.86668818 480.61631633 292.1814745 486.4387207 296.44604492 C494.06612087 302.03266912 501.59516635 307.73880831 509.1027832 313.48510742 C514.83774798 317.86668818 520.61631633 322.1814745 526.4387207 326.44604492 C534.06612087 332.03266912 541.59516635 337.73880831 549.1027832 343.48510742 C554.83774798 347.86668818 560.61631633 352.1814745 566.4387207 356.44604492 C574.06612087 362.03266912 581.59516635 367.73880831 589.1027832 373.48510742 C594.83774798 377.86668818 600.61631633 382.1814745 606.4387207 386.44604492 C614.06612087 392.03266912 621.59516635 397.73880831 629.1027832 403.48510742 C634.83774798 407.86668818 640.61631633 412.1814745 646.4387207 416.44604492 C654.06612087 422.03266912 661.59516635 427.73880831 669.1027832 433.48510742 C674.83774798 437.86668818 680.61631633 442.1814745 686.4387207 446.44604492 C694.06612087 452.03266912 701.59516635 457.73880831 709.1027832 463.48510742 C714.83774798 467.86668818 720.61631633 472.1814745 726.4387207 476.44604492 C734.06612087 482.03266912 741.59516635 487.73880831 749.1027832 493.48510742 C754.83774798 497.86668818 760.61631633 502.1814745 766.4387207 506.44604492 C774.06612087 512.03266912 781.59516635 517.73880831 789.1027832 523.48510742 C794.83774798 527.86668818 800.61631633 532.1814745 806.4387207 536.44604492 C814.06612087 542.03266912 821.59516635 547.73880831 829.1027832 553.48510742 C834.83774798 557.86668818 840.61631633 562.1814745 846.4387207 566.44604492 C854.06612087 572.03266912 861.59516635 577.73880831 869.1027832 583.48510742 C874.83774798 587.86668818 880.61631633 592.1814745 886.4387207 596.44604492 C894.06612087 602.03266912 901.59516635 607.73880831 909.1027832 613.48510742 C914.83774798 617.86668818 920.61631633 622.1814745 926.4387207 626.44604492 C934.06612087 632.03266912 941.59516635 637.73880831 949.1027832 643.48510742 C954.83774798 647.86668818 960.61631633 652.1814745 966.4387207 656.44604492 C974.05347147 662.02340418 981.57029761 667.7197261 989.06542969 673.45654297 C997.32510425 679.76696821 1005.68325297 685.93918929 1014.07373047 692.07421875 C1015.9387207 693.44604492 1015.9387207 693.44604492 1017.86425781 695.24560547 C1019.91863051 696.7547716 1019.91863051 696.7547716 1022.4128418 695.83374023 C1024.91651404 694.45824507 1027.0999389 692.99782965 1029.3527832 691.24291992 C1030.18616211 690.59967773 1031.01954102 689.95643555 1031.87817383 689.29370117 C1032.7644043 688.60147461 1033.65063477 687.90924805 1034.5637207 687.19604492 C1036.46116347 685.73121384 1038.35962107 684.26769647 1040.2590332 682.80541992 C1041.21326172 682.07000977 1042.16749023 681.33459961 1043.15063477 680.5769043 C1047.20613703 677.47739258 1051.31770433 674.45759046 1055.4387207 671.44604492 C1062.16426851 666.52120376 1068.81926881 661.51254622 1075.4387207 656.44604492 C1082.82513862 650.79251097 1090.27066536 645.23134298 1097.7746582 639.73510742 C1103.71543504 635.3732746 1109.58625331 630.92549944 1115.4387207 626.44604492 C1122.82513862 620.79251097 1130.27066536 615.23134298 1137.7746582 609.73510742 C1143.71543504 605.3732746 1149.58625331 600.92549944 1155.4387207 596.44604492 C1162.82513862 590.79251097 1170.27066536 585.23134298 1177.7746582 579.73510742 C1183.71543504 575.3732746 1189.58625331 570.92549944 1195.4387207 566.44604492 C1202.82513862 560.79251097 1210.27066536 555.23134298 1217.7746582 549.73510742 C1223.71543504 545.3732746 1229.58625331 540.92549944 1235.4387207 536.44604492 C1242.82513862 530.79251097 1250.27066536 525.23134298 1257.7746582 519.73510742 C1263.71543504 515.3732746 1269.58625331 510.92549944 1275.4387207 506.44604492 C1282.82513862 500.79251097 1290.27066536 495.23134298 1297.7746582 489.73510742 C1303.71543504 485.3732746 1309.58625331 480.92549944 1315.4387207 476.44604492 C1322.82513862 470.79251097 1330.27066536 465.23134298 1337.7746582 459.73510742 C1343.71543504 455.3732746 1349.58625331 450.92549944 1355.4387207 446.44604492 C1362.82513862 440.79251097 1370.27066536 435.23134298 1377.7746582 429.73510742 C1383.71543504 425.3732746 1389.58625331 420.92549944 1395.4387207 416.44604492 C1402.82513862 410.79251097 1410.27066536 405.23134298 1417.7746582 399.73510742 C1423.71543504 395.3732746 1429.58625331 390.92549944 1435.4387207 386.44604492 C1442.82513862 380.79251097 1450.27066536 375.23134298 1457.7746582 369.73510742 C1463.71543504 365.3732746 1469.58625331 360.92549944 1475.4387207 356.44604492 C1482.82513862 350.79251097 1490.27066536 345.23134298 1497.7746582 339.73510742 C1503.71543504 335.3732746 1509.58625331 330.92549944 1515.4387207 326.44604492 C1522.82513862 320.79251097 1530.27066536 315.23134298 1537.7746582 309.73510742 C1543.71543504 305.3732746 1549.58625331 300.92549944 1555.4387207 296.44604492 C1562.82513862 290.79251097 1570.27066536 285.23134298 1577.7746582 279.73510742 C1583.71543504 275.3732746 1589.58625331 270.92549944 1595.4387207 266.44604492 C1602.82513862 260.79251097 1610.27066536 255.23134298 1617.7746582 249.73510742 C1623.71543504 245.3732746 1629.58625331 240.92549944 1635.4387207 236.44604492 C1642.82513862 230.79251097 1650.27066536 225.23134298 1657.7746582 219.73510742 C1663.71543504 215.3732746 1669.58625331 210.92549944 1675.4387207 206.44604492 C1682.82513862 200.79251097 1690.27066536 195.23134298 1697.7746582 189.73510742 C1704.61100795 184.7157277 1711.35090315 179.57526172 1718.08520508 174.42016602 C1724.77406707 169.3093102 1731.53265799 164.3007733 1738.32177734 159.32421875 C1743.94226945 155.19816526 1749.48568784 150.98553472 1754.99731445 146.71557617 C1757.79296904 144.55850404 1760.60958618 142.43394286 1763.4387207 140.32104492 C1768.08256962 136.85192458 1772.69528782 133.34431764 1777.30004883 129.82348633 C1785.73193101 123.37763858 1794.21067198 117.00780888 1802.77294922 110.73632812 C1808.71433205 106.37413638 1814.58569706 101.92592519 1820.4387207 97.44604492 C1827.82431644 91.79314027 1835.26839074 86.23170654 1842.77246094 80.73730469 C1848.73832186 76.35820781 1854.62702964 71.88462506 1860.5012207 67.38354492 C1875.23855423 56.11707772 1890.13031571 45.1745859 1905.9387207 35.44604492 C1906.57422852 35.05465332 1907.20973633 34.66326172 1907.86450195 34.26000977 C1929.91557472 20.86615164 1954.68892017 11.74266111 1979.6887207 5.63354492 C1980.80077881 5.35933716 1980.80077881 5.35933716 1981.93530273 5.07958984 C1984.59359431 4.46932826 1987.25777754 3.94859084 1989.9387207 3.44604492 C1990.58419861 3.3210965 1991.22967651 3.19614807 1991.89471436 3.06741333 C2005.90684767 0.42480361 2019.70892014 -0.05100148 2033.94506836 0 C2037.53859328 0.00848559 2041.13050854 -0.02033475 2044.72387695 -0.05200195 C2065.26014428 -0.1151054 2085.53544645 2.02788648 2105.3137207 7.75854492 C2106.38710693 8.06139404 2107.46049316 8.36424316 2108.56640625 8.67626953 C2111.69850999 9.57478378 2114.81971876 10.50317481 2117.9387207 11.44604492 C2118.80094238 11.70192383 2119.66316406 11.95780273 2120.55151367 12.22143555 C2150.83584923 21.38714781 2179.28392644 37.8377144 2203.9387207 57.44604492 C2204.96223633 58.24526367 2205.98575195 59.04448242 2207.0402832 59.86791992 C2222.91049421 72.74452523 2238.01573091 87.83902343 2249.9387207 104.44604492 C2250.76493198 105.54514236 2251.59309251 106.64277695 2252.4230957 107.73901367 C2273.47547368 135.90952798 2287.94039513 169.48578287 2295.6262207 203.69604492 C2295.81659912 204.526604 2296.00697754 205.35716309 2296.203125 206.21289062 C2300.37017504 225.74332532 2301.37707168 245.14558136 2301.31624413 265.0551796 C2301.31938032 267.67873018 2301.32370668 270.30225502 2301.32945722 272.92579877 C2301.33954913 278.60840221 2301.33870526 284.29091899 2301.33040659 289.97352412 C2301.31803981 298.48051631 2301.32319305 306.98743929 2301.33155452 315.4944332 C2301.34530566 329.99861266 2301.34492842 344.50276048 2301.33671188 359.00694275 C2301.32844247 373.69415172 2301.32672963 388.38133988 2301.33292389 403.06855011 C2301.33331141 403.99807062 2301.33369892 404.92759114 2301.33409819 405.88527894 C2301.33569809 409.67139783 2301.33734423 413.4575167 2301.33904901 417.24363555 C2301.35489674 452.46445252 2301.35600215 487.68525554 2301.34760666 522.90607452 C2301.34735827 523.94860997 2301.34710989 524.99114541 2301.34685397 526.06527284 C2301.34660518 527.10948383 2301.3463564 528.15369483 2301.34610007 529.22954858 C2301.33852654 561.05907807 2301.3365782 592.88860181 2301.340168 624.71813202 C2301.34040044 626.85068435 2301.34063191 628.98323667 2301.34086241 631.115789 C2301.34179383 639.68587678 2301.34274983 648.25596455 2301.3437417 656.82605233 C2301.34649251 680.7816776 2301.34820447 704.7373029 2301.34910011 728.69292831 C2301.34914105 729.78373988 2301.34918199 730.87455144 2301.34922417 731.9984179 C2301.35045171 766.74818448 2301.34707277 801.49794905 2301.34055138 836.247715 C2301.34034063 837.37454151 2301.34012988 838.50136802 2301.33991275 839.6623408 C2301.33647802 857.96060304 2301.33281958 876.25886524 2301.32914223 894.55712744 C2301.31457149 967.13761851 2301.3152516 1039.71809298 2301.32983398 1112.29858398 C2301.33349761 1130.592439 2301.33713078 1148.88629402 2301.34055138 1167.18014908 C2301.34086839 1168.86982084 2301.34086839 1168.86982084 2301.34119181 1170.59362738 C2301.34766089 1205.31119654 2301.3504031 1240.02876433 2301.34910011 1274.74633408 C2301.34905936 1275.83628792 2301.34901861 1276.92624176 2301.34897662 1278.0492245 C2301.34803917 1301.97589968 2301.34613821 1325.9025747 2301.3433686 1349.82924973 C2301.3423812 1358.39035488 2301.34144195 1366.95146003 2301.34051647 1375.51256518 C2301.34028431 1377.64230149 2301.34004811 1379.7720378 2301.33980788 1381.90177411 C2301.33622815 1413.72485007 2301.33927437 1445.54791955 2301.34685397 1477.3709947 C2301.34710236 1478.41386133 2301.34735075 1479.45672795 2301.34760666 1480.53119659 C2301.34797873 1482.09260477 2301.34797873 1482.09260477 2301.34835832 1483.68555655 C2301.35663466 1518.80151863 2301.35358565 1553.917464 2301.33776443 1589.03342369 C2301.33610739 1592.80533044 2301.33449727 1596.5772372 2301.33292389 1600.34914398 C2301.33253327 1601.27482342 2301.33214265 1602.20050287 2301.33174019 1603.1542332 C2301.32582656 1617.80258663 2301.32993896 1632.45091925 2301.33823091 1647.0992708 C2301.34617313 1661.50797044 2301.34336944 1675.91663502 2301.32918864 1690.32533022 C2301.3211956 1698.76849777 2301.32132731 1707.21156914 2301.33363343 1715.65473205 C2301.34185743 1721.9302656 2301.33436585 1728.20568976 2301.32086461 1734.48121212 C2301.3178504 1736.99870426 2301.31982225 1739.51620875 2301.32748242 1742.03369103 C2301.37762932 1759.77745952 2300.37857721 1776.8411119 2295.2512207 1793.94604492 C2294.99630859 1794.81076416 2294.74139648 1795.6754834 2294.47875977 1796.56640625 C2285.95678435 1824.51227487 2271.12971147 1848.48440565 2250.9387207 1869.44604492 C2250.24907227 1870.19885742 2249.55942383 1870.95166992 2248.84887695 1871.72729492 C2222.04906249 1900.12172407 2183.03531598 1915.68397051 2144.9387207 1920.44604492 C2004.3587207 1920.44604492 1863.7787207 1920.44604492 1718.9387207 1920.44604492 C1718.4437207 1431.88104492 1718.4437207 1431.88104492 1717.9387207 933.44604492 C1709.0287207 940.37604492 1709.0287207 940.37604492 1699.9387207 947.44604492 C1696.84494402 949.75762146 1693.75232026 952.05566876 1690.6262207 954.32104492 C1683.835092 959.28379282 1677.11717595 964.33274717 1670.4387207 969.44604492 C1663.05240061 975.09970454 1655.60677338 980.66074881 1648.1027832 986.15698242 C1642.16200637 990.51881525 1636.2911881 994.96659041 1630.4387207 999.44604492 C1623.05230279 1005.09957887 1615.60677605 1010.66074686 1608.1027832 1016.15698242 C1602.16200637 1020.51881525 1596.2911881 1024.96659041 1590.4387207 1029.44604492 C1583.05230279 1035.09957887 1575.60677605 1040.66074686 1568.1027832 1046.15698242 C1562.16200637 1050.51881525 1556.2911881 1054.96659041 1550.4387207 1059.44604492 C1543.05230279 1065.09957887 1535.60677605 1070.66074686 1528.1027832 1076.15698242 C1522.16200637 1080.51881525 1516.2911881 1084.96659041 1510.4387207 1089.44604492 C1503.05230279 1095.09957887 1495.60677605 1100.66074686 1488.1027832 1106.15698242 C1482.16200637 1110.51881525 1476.2911881 1114.96659041 1470.4387207 1119.44604492 C1463.05230279 1125.09957887 1455.60677605 1130.66074686 1448.1027832 1136.15698242 C1442.16200637 1140.51881525 1436.2911881 1144.96659041 1430.4387207 1149.44604492 C1423.05230279 1155.09957887 1415.60677605 1160.66074686 1408.1027832 1166.15698242 C1402.16200637 1170.51881525 1396.2911881 1174.96659041 1390.4387207 1179.44604492 C1383.05230279 1185.09957887 1375.60677605 1190.66074686 1368.1027832 1196.15698242 C1362.16200637 1200.51881525 1356.2911881 1204.96659041 1350.4387207 1209.44604492 C1343.05230279 1215.09957887 1335.60677605 1220.66074686 1328.1027832 1226.15698242 C1322.16200637 1230.51881525 1316.2911881 1234.96659041 1310.4387207 1239.44604492 C1303.05230279 1245.09957887 1295.60677605 1250.66074686 1288.1027832 1256.15698242 C1282.16200637 1260.51881525 1276.2911881 1264.96659041 1270.4387207 1269.44604492 C1263.05230279 1275.09957887 1255.60677605 1280.66074686 1248.1027832 1286.15698242 C1242.16200637 1290.51881525 1236.2911881 1294.96659041 1230.4387207 1299.44604492 C1223.05230279 1305.09957887 1215.60677605 1310.66074686 1208.1027832 1316.15698242 C1202.16200637 1320.51881525 1196.2911881 1324.96659041 1190.4387207 1329.44604492 C1183.05230279 1335.09957887 1175.60677605 1340.66074686 1168.1027832 1346.15698242 C1162.16200637 1350.51881525 1156.2911881 1354.96659041 1150.4387207 1359.44604492 C1143.05230279 1365.09957887 1135.60677605 1370.66074686 1128.1027832 1376.15698242 C1122.16200637 1380.51881525 1116.2911881 1384.96659041 1110.4387207 1389.44604492 C1103.05230279 1395.09957887 1095.60677605 1400.66074686 1088.1027832 1406.15698242 C1082.16200281 1410.51881786 1076.29131153 1414.96674763 1070.4387207 1419.44604492 C1063.01182818 1425.12767906 1055.55003566 1430.7548036 1047.99291992 1436.26245117 C1043.84873765 1439.2840145 1039.75268232 1442.35152748 1035.7043457 1445.50073242 C1034.84405762 1446.16057129 1033.98376953 1446.82041016 1033.09741211 1447.50024414 C1031.44254686 1448.77113218 1029.79837795 1450.05610526 1028.16674805 1451.35668945 C1022.70322766 1455.5168326 1022.70322766 1455.5168326 1019.4074707 1455.21166992 C1015.79610355 1452.62885671 1012.27588421 1449.976432 1008.8137207 1447.19604492 C1002.49947258 1442.20266402 996.12779248 1437.3180512 989.6262207 1432.57104492 C982.83673844 1427.60599974 976.1172293 1422.55938352 969.4387207 1417.44604492 C962.81933796 1412.37941683 956.16368863 1407.37169033 949.4387207 1402.44604492 C941.81132054 1396.85942072 934.28227506 1391.15328154 926.7746582 1385.40698242 C921.03969343 1381.02540167 915.26112507 1376.71061535 909.4387207 1372.44604492 C901.81132054 1366.85942072 894.28227506 1361.15328154 886.7746582 1355.40698242 C881.03969343 1351.02540167 875.26112507 1346.71061535 869.4387207 1342.44604492 C861.81132054 1336.85942072 854.28227506 1331.15328154 846.7746582 1325.40698242 C841.03969343 1321.02540167 835.26112507 1316.71061535 829.4387207 1312.44604492 C821.81132054 1306.85942072 814.28227506 1301.15328154 806.7746582 1295.40698242 C801.03969343 1291.02540167 795.26112507 1286.71061535 789.4387207 1282.44604492 C781.81132054 1276.85942072 774.28227506 1271.15328154 766.7746582 1265.40698242 C761.03969343 1261.02540167 755.26112507 1256.71061535 749.4387207 1252.44604492 C741.81132054 1246.85942072 734.28227506 1241.15328154 726.7746582 1235.40698242 C721.03969343 1231.02540167 715.26112507 1226.71061535 709.4387207 1222.44604492 C701.81132054 1216.85942072 694.28227506 1211.15328154 686.7746582 1205.40698242 C681.03969343 1201.02540167 675.26112507 1196.71061535 669.4387207 1192.44604492 C661.81132054 1186.85942072 654.28227506 1181.15328154 646.7746582 1175.40698242 C641.03969343 1171.02540167 635.26112507 1166.71061535 629.4387207 1162.44604492 C621.81132054 1156.85942072 614.28227506 1151.15328154 606.7746582 1145.40698242 C601.03969343 1141.02540167 595.26112507 1136.71061535 589.4387207 1132.44604492 C581.81132054 1126.85942072 574.28227506 1121.15328154 566.7746582 1115.40698242 C561.03969343 1111.02540167 555.26112507 1106.71061535 549.4387207 1102.44604492 C541.81132054 1096.85942072 534.28227506 1091.15328154 526.7746582 1085.40698242 C521.03969343 1081.02540167 515.26112507 1076.71061535 509.4387207 1072.44604492 C501.81132054 1066.85942072 494.28227506 1061.15328154 486.7746582 1055.40698242 C481.03969343 1051.02540167 475.26112507 1046.71061535 469.4387207 1042.44604492 C461.81132054 1036.85942072 454.28227506 1031.15328154 446.7746582 1025.40698242 C441.03969343 1021.02540167 435.26112507 1016.71061535 429.4387207 1012.44604492 C421.81132054 1006.85942072 414.28227506 1001.15328154 406.7746582 995.40698242 C401.03969343 991.02540167 395.26112507 986.71061535 389.4387207 982.44604492 C382.71374865 977.52039649 376.05824292 972.51249504 369.4387207 967.44604492 C362.02630545 961.77367488 354.56647725 956.17474 347.0324707 950.66479492 C339.28214791 944.99173055 331.62536276 939.21102646 323.9387207 933.44604492 C323.6087207 1259.15604492 323.2787207 1584.86604492 322.9387207 1920.44604492 C-113.58769975 1920.44604492 -113.58769975 1920.44604492 -132.5612793 1914.75854492 C-133.85835815 1914.37617676 -133.85835815 1914.37617676 -135.18164062 1913.98608398 C-163.12750924 1905.46410857 -187.09964003 1890.63703569 -208.0612793 1870.44604492 C-209.19049805 1869.41157227 -209.19049805 1869.41157227 -210.3425293 1868.35620117 C-237.92096636 1842.32655315 -257.68867672 1800.03188239 -259.15472953 1762.0232718 C-259.19040223 1759.24877113 -259.19583125 1756.47579705 -259.19008046 1753.70106965 C-259.19185547 1752.63475156 -259.19363048 1751.56843347 -259.19545928 1750.46980272 C-259.20020427 1746.88337599 -259.19782504 1743.2969894 -259.19550037 1739.7105608 C-259.19745328 1737.10752944 -259.19984212 1734.50449837 -259.20262834 1731.90146777 C-259.20799805 1726.21717696 -259.20964587 1720.53289442 -259.2088776 1714.84860126 C-259.20774173 1706.33868074 -259.21232469 1697.82876984 -259.21800844 1689.31885148 C-259.2275191 1674.81517186 -259.2322273 1660.31149417 -259.23431778 1645.80781174 C-259.23644608 1631.10623595 -259.24070555 1616.40466313 -259.2475605 1601.70308876 C-259.24799112 1600.77500343 -259.24842173 1599.84691811 -259.24886539 1598.89070898 C-259.25062374 1595.11080663 -259.25239339 1591.33090427 -259.25417841 1587.55100193 C-259.27578002 1541.71881494 -259.28665799 1495.88662736 -259.29565465 1450.05443643 C-259.29858875 1435.18988829 -259.30195867 1420.32534029 -259.30562186 1405.4607923 C-259.30588015 1404.41208846 -259.30613844 1403.36338461 -259.30640456 1402.28290186 C-259.3074508 1398.04014546 -259.30849922 1393.79738906 -259.30955038 1389.55463265 C-259.32751667 1316.97350014 -259.3428947 1244.3923674 -259.35030942 1171.81123298 C-259.35089338 1166.10968635 -259.35149065 1160.40813973 -259.35208703 1154.70659311 C-259.35220515 1153.57559328 -259.35232327 1152.44459346 -259.35244497 1151.27932091 C-259.35364235 1139.82080978 -259.35485111 1128.36229864 -259.3560775 1116.90378751 C-259.35632274 1114.60633209 -259.35656659 1112.30887667 -259.35680907 1110.01142125 C-259.36459607 1036.25124682 -259.3869725 962.49108832 -259.4194855 888.73092086 C-259.44283806 835.73459915 -259.46438632 782.73828061 -259.47149181 729.74195385 C-259.47163883 728.65152857 -259.47178586 727.56110329 -259.47193733 726.43763482 C-259.47512253 702.49711483 -259.47717316 678.55659488 -259.47816488 654.6160747 C-259.4785796 644.98262287 -259.4791345 635.34917105 -259.47972679 625.71571922 C-259.47978746 624.66141533 -259.47984813 623.60711144 -259.47991064 622.52085894 C-259.48192493 588.58833427 -259.49615098 554.65582843 -259.51667179 520.72331032 C-259.53727691 486.52999686 -259.54513434 452.33670513 -259.53559403 418.14338608 C-259.53427569 413.41173188 -259.53309761 408.68007765 -259.5320034 403.94842339 C-259.53178355 403.02094024 -259.53156371 402.0934571 -259.5313372 401.13786841 C-259.52823041 386.48866873 -259.53851999 371.83951077 -259.55447895 357.19032075 C-259.56991499 342.76350882 -259.57093499 328.33675424 -259.55693072 313.90994026 C-259.54915951 305.46684106 -259.55212263 297.02391781 -259.57156788 288.58083645 C-259.58341647 282.95293648 -259.58039273 277.3251633 -259.56595324 271.6972699 C-259.55819834 268.52005248 -259.55840807 265.3432358 -259.57257227 262.16603119 C-259.6816197 235.97529484 -256.33690552 210.62335647 -249.0612793 185.44604492 C-248.72555908 184.27138672 -248.72555908 184.27138672 -248.38305664 183.07299805 C-240.53529253 156.23001101 -227.49528764 130.98906146 -211.0612793 108.44604492 C-210.6384668 107.86483887 -210.2156543 107.28363281 -209.7800293 106.68481445 C-204.48440189 99.46745351 -198.78455199 92.75524939 -192.65893555 86.23120117 C-190.33835732 83.74312256 -188.09869594 81.20678511 -185.8737793 78.63354492 C-182.21694303 74.51316603 -178.26785425 70.99098971 -174.0612793 67.44604492 C-173.07643555 66.57334961 -172.0915918 65.7006543 -171.0769043 64.80151367 C-155.6853245 51.20224433 -139.13959292 40.16327411 -121.0612793 30.44604492 C-120.3472998 30.06077637 -119.63332031 29.67550781 -118.89770508 29.27856445 C-98.82070005 18.55821055 -77.26189542 10.91520666 -55.1237793 5.75854492 C-53.91165771 5.47297729 -53.91165771 5.47297729 -52.67504883 5.18164062 C-49.81260942 4.54477146 -46.9436889 3.98600338 -44.0612793 3.44604492 C-43.40370636 3.31896149 -42.74613342 3.19187805 -42.06863403 3.0609436 C-28.05047637 0.41971624 -14.24212751 -0.05093682 0 0 Z " fill="#EA4234" transform="translate(259.061279296875,-0.446044921875)"/>
<path d="M0 0 C1.1107489 0.62871002 2.2214978 1.25742004 3.36590576 1.90518188 C3.99070202 2.25883127 4.61549828 2.61248066 5.25922775 2.97684669 C7.28503184 4.16752983 9.1176576 5.49484428 10.953125 6.9609375 C11.64446533 7.50733887 12.33580566 8.05374023 13.0480957 8.61669922 C13.77472412 9.19693848 14.50135254 9.77717773 15.25 10.375 C21.52509045 15.32223128 27.86044537 20.16086799 34.3125 24.875 C41.10180563 29.84029218 47.82148555 34.88665692 54.5 40 C61.11938274 45.0666281 67.77503207 50.07435459 74.5 55 C82.12740017 60.5866242 89.65644565 66.29276338 97.1640625 72.0390625 C102.89902727 76.42064326 108.67759563 80.73542958 114.5 85 C122.12740017 90.5866242 129.65644565 96.29276338 137.1640625 102.0390625 C142.89902727 106.42064326 148.67759563 110.73542958 154.5 115 C162.12740017 120.5866242 169.65644565 126.29276338 177.1640625 132.0390625 C182.89902727 136.42064326 188.67759563 140.73542958 194.5 145 C202.12740017 150.5866242 209.65644565 156.29276338 217.1640625 162.0390625 C222.89902727 166.42064326 228.67759563 170.73542958 234.5 175 C242.12740017 180.5866242 249.65644565 186.29276338 257.1640625 192.0390625 C262.89902727 196.42064326 268.67759563 200.73542958 274.5 205 C282.12740017 210.5866242 289.65644565 216.29276338 297.1640625 222.0390625 C302.89902727 226.42064326 308.67759563 230.73542958 314.5 235 C322.12740017 240.5866242 329.65644565 246.29276338 337.1640625 252.0390625 C342.89902727 256.42064326 348.67759563 260.73542958 354.5 265 C362.12740017 270.5866242 369.65644565 276.29276338 377.1640625 282.0390625 C382.89902727 286.42064326 388.67759563 290.73542958 394.5 295 C402.12740017 300.5866242 409.65644565 306.29276338 417.1640625 312.0390625 C422.89902727 316.42064326 428.67759563 320.73542958 434.5 325 C442.12740017 330.5866242 449.65644565 336.29276338 457.1640625 342.0390625 C462.89902727 346.42064326 468.67759563 350.73542958 474.5 355 C482.12740017 360.5866242 489.65644565 366.29276338 497.1640625 372.0390625 C502.89902727 376.42064326 508.67759563 380.73542958 514.5 385 C522.12444345 390.58445858 529.65074933 396.28815632 537.15527344 402.0324707 C542.97576988 406.47960971 548.84167798 410.85784378 554.75 415.1875 C561.09006436 419.83382155 567.38205149 424.53634005 573.625 429.3125 C574.35428711 429.87026123 575.08357422 430.42802246 575.83496094 431.00268555 C580.86122736 434.86122736 580.86122736 434.86122736 582 436 C582.0984679 438.15337924 582.12447098 440.31006606 582.1241985 442.46569544 C582.12547658 443.15376215 582.12675467 443.84182886 582.12807148 444.55074607 C582.13116958 446.89006242 582.1270499 449.22931311 582.12304783 451.56862736 C582.12378654 453.25646135 582.12496413 454.94429521 582.12654433 456.63212863 C582.12963445 461.31380745 582.12642088 465.99546481 582.12226619 470.67714205 C582.11884984 475.75389233 582.12119936 480.8306403 582.12284368 485.90739101 C582.12492368 494.81942579 582.12326303 503.73145392 582.11920547 512.64348793 C582.11318866 525.89551084 582.11286797 539.14752952 582.11374746 552.39955354 C582.11506369 574.6878695 582.1117184 596.97618281 582.10573006 619.26449776 C582.09981198 641.34395932 582.09595585 663.42341966 582.09487724 685.502882 C582.09484283 686.18803361 582.09480842 686.87318521 582.09477296 687.57909898 C582.09445977 693.83670322 582.09417208 700.09430746 582.09391499 706.3519117 C582.09327551 721.9091299 582.09231614 737.46634808 582.09113979 753.02356625 C582.09108648 753.73208682 582.09103316 754.44060739 582.09097823 755.17059829 C582.08835533 789.65434137 582.0820472 824.13808366 582.07543945 858.62182617 C582.07314784 870.59171549 582.07087249 882.56160481 582.06866455 894.53149414 C582.06845913 895.64502171 582.06845913 895.64502171 582.06824955 896.78104479 C582.06190803 931.27705146 582.05818071 965.77305827 582.05512976 1000.26906537 C582.05493169 1002.50797246 582.0547325 1004.74687956 582.05453308 1006.98578665 C582.05321332 1021.82286955 582.05193867 1036.65995246 582.05069422 1051.49703536 C582.04821757 1081.02033257 582.04547589 1110.54362975 582.04255217 1140.06692692 C582.04241293 1141.47297251 582.04227388 1142.8790181 582.04213501 1144.2850637 C582.03356622 1231.02274872 582.01921504 1317.76043284 582 1425 C528.05354163 1425.06872568 474.10708769 1425.12155901 420.16059412 1425.15319599 C413.78601775 1425.15694793 407.41144147 1425.16083092 401.03686523 1425.16479492 C399.76784724 1425.16558185 398.49882925 1425.16636878 397.19135616 1425.16717956 C376.66649044 1425.18021946 356.14165004 1425.20386549 335.61679932 1425.23145839 C314.54310789 1425.25955202 293.46942969 1425.27618462 272.3957203 1425.28226548 C259.40103403 1425.28637371 246.4064193 1425.29933082 233.41175506 1425.3237494 C224.49056053 1425.33965547 215.56940278 1425.34438936 206.64819511 1425.34050413 C201.50769089 1425.33859016 196.36731136 1425.34144227 191.22682953 1425.35761642 C186.50780799 1425.37235497 181.78899346 1425.37286316 177.06996182 1425.36269668 C175.37514896 1425.36144261 173.68032247 1425.36512904 171.98553588 1425.37464955 C156.56025834 1425.45616524 141.32452101 1423.75628263 126.5 1419.3125 C125.20292114 1418.93013184 125.20292114 1418.93013184 123.87963867 1418.54003906 C95.93377006 1410.01806364 71.96163927 1395.19099076 51 1375 C49.87078125 1373.96552734 49.87078125 1373.96552734 48.71875 1372.91015625 C21.15980382 1346.89890451 1.54680278 1304.80499056 -0.09265641 1266.85521336 C-0.12669026 1264.52612051 -0.1313557 1262.19887932 -0.1241985 1259.86954689 C-0.12547658 1258.97809393 -0.12675467 1258.08664097 -0.12807148 1257.16817428 C-0.13113671 1254.17782272 -0.12707091 1251.18752388 -0.12304783 1248.19717407 C-0.12378751 1246.0236618 -0.12496615 1243.85014965 -0.12654433 1241.67663783 C-0.1296189 1235.67909137 -0.12643361 1229.68156181 -0.12226619 1223.6840166 C-0.11919062 1217.84040121 -0.12083656 1211.99678838 -0.12234976 1206.15317266 C-0.12531518 1194.05443276 -0.12354335 1181.95569769 -0.11920547 1169.85695839 C-0.11482851 1157.59520729 -0.11263276 1145.33345868 -0.11310768 1133.07170677 C-0.11313637 1132.29746231 -0.11316507 1131.52321785 -0.11319463 1130.72551143 C-0.113351 1126.77768917 -0.11354295 1122.82986691 -0.11374746 1118.88204465 C-0.11515527 1090.30153995 -0.11172307 1061.72103747 -0.10573006 1033.14053345 C-0.09980875 1004.83436065 -0.0959552 976.5281888 -0.09487724 948.22201538 C-0.09484283 947.34311873 -0.09480842 946.46422208 -0.09477296 945.5586922 C-0.09445977 937.53139196 -0.09417208 929.50409172 -0.09391499 921.47679147 C-0.09327557 901.52131657 -0.09231624 881.5658417 -0.09113979 861.61036682 C-0.09108648 860.7016121 -0.09103316 859.79285738 -0.09097823 858.85656464 C-0.08835635 814.6447732 -0.08204864 770.43298239 -0.07543945 726.22119141 C-0.0731478 710.87762452 -0.07087245 695.53405762 -0.06866455 680.19049072 C-0.0685276 679.23888852 -0.06839065 678.28728633 -0.06824955 677.3068477 C-0.06190613 633.07390437 -0.0581801 588.84096094 -0.05512976 544.60801727 C-0.05493169 541.7365796 -0.0547325 538.86514193 -0.05453308 535.99370426 C-0.0532133 516.96462672 -0.05193865 497.93554917 -0.05069422 478.90647162 C-0.04821768 441.04293782 -0.04547599 403.17940403 -0.04255217 365.31587025 C-0.04241293 363.51268711 -0.04227388 361.70950398 -0.04213501 359.90632085 C-0.03588148 278.72530734 -0.02654339 197.54429429 -0.01586914 116.36328125 C-0.01576921 115.60309175 -0.01566927 114.84290225 -0.01556631 114.0596767 C-0.01056579 76.03978444 -0.00538927 38.01989221 0 0 Z " fill="#4284F3" transform="translate(0,495)"/>
<path d="M0 0 C0.01649532 38.72957331 0.032311 77.4591469 0.04760742 116.1887207 C0.04790681 116.94661542 0.04820621 117.70451014 0.04851467 118.48537136 C0.08058043 199.70461686 0.10824871 280.92386245 0.12702942 362.14311218 C0.12744777 363.94748982 0.12786613 365.75186745 0.12828448 367.55624508 C0.1370528 405.43174448 0.14520292 443.30724398 0.15263903 481.18274366 C0.15637518 500.20924818 0.1602301 519.23575268 0.16419732 538.26225716 C0.16479507 541.13230906 0.16538943 544.00236097 0.16598364 546.87241287 C0.1751621 591.06000399 0.18688572 635.24759262 0.20599365 679.43518066 C0.20640435 680.38504025 0.20681505 681.33489984 0.20723819 682.31354305 C0.21387519 697.62780413 0.22072606 712.94206512 0.22760532 728.25632609 C0.24741977 772.37349306 0.26564918 816.49065812 0.27341938 860.60782909 C0.27357999 861.51533173 0.27374059 862.42283437 0.27390606 863.35783709 C0.2774036 883.28116771 0.28008805 903.20449836 0.28200295 923.1278292 C0.2827878 931.14467471 0.28368966 939.16152021 0.28463173 947.17836571 C0.28473201 948.05576683 0.28483229 948.93316795 0.28493561 949.83715698 C0.28822326 978.0929865 0.30103075 1006.34880183 0.31884663 1034.60462563 C0.3367541 1063.07498162 0.3452941 1091.54532386 0.34087196 1120.01568563 C0.34026275 1123.9529645 0.33976059 1127.89024338 0.33932304 1131.82752228 C0.33918858 1132.98521691 0.33918858 1132.98521691 0.3390514 1134.16629932 C0.33791092 1146.37099841 0.34685 1158.57566833 0.36002959 1170.78035948 C0.37279166 1182.79131935 0.37479961 1194.80224155 0.36549544 1206.81320501 C0.36096603 1213.23435477 0.36116119 1219.65540736 0.37464955 1226.07654671 C0.3868419 1231.92523691 0.38505909 1237.77375465 0.37241993 1243.62244238 C0.37028811 1245.71832354 0.37311961 1247.8142176 0.38170573 1249.91008225 C0.44516841 1266.45876534 -0.91318302 1282.57281178 -5.6875 1298.5 C-5.94241211 1299.36471924 -6.19732422 1300.22943848 -6.45996094 1301.12036133 C-14.98193636 1329.06622994 -29.80900924 1353.03836073 -50 1374 C-50.68964844 1374.7528125 -51.37929687 1375.505625 -52.08984375 1376.28125 C-78.51198842 1404.27553764 -121.19729414 1423.83964744 -159.72511244 1425.1241985 C-161.01616156 1425.12381878 -162.30721068 1425.12343906 -163.63738251 1425.12304783 C-164.36586045 1425.12420167 -165.0943384 1425.12535552 -165.84489143 1425.12654433 C-168.27483224 1425.12918163 -170.70470619 1425.12471276 -173.13464355 1425.12025452 C-174.89871311 1425.12069081 -176.6627826 1425.12156679 -178.42685175 1425.12284368 C-183.2658557 1425.12507724 -188.10483747 1425.12108293 -192.9438386 1425.11606562 C-198.16528732 1425.11174497 -203.38673481 1425.11320869 -208.60818481 1425.1139679 C-217.65189408 1425.1144921 -226.69559614 1425.11135604 -235.73930359 1425.10573006 C-248.8149683 1425.09760114 -261.89062953 1425.09499841 -274.96629649 1425.09374207 C-296.1809835 1425.09155374 -317.39566665 1425.08489959 -338.61035156 1425.07543945 C-359.21777324 1425.06625967 -379.82519388 1425.0591816 -400.43261719 1425.05493164 C-401.70297552 1425.05466892 -402.97333384 1425.05440619 -404.28218788 1425.05413551 C-410.65523715 1425.05283047 -417.02828643 1425.05156676 -423.40133572 1425.05032361 C-476.2675598 1425.03995782 -529.13377971 1425.02234545 -582 1425 C-582.287868 1337.1943202 -582.56624326 1249.38855117 -582.76217651 1142.72817993 C-582.76468662 1141.32181869 -582.76719675 1139.91545745 -582.7697069 1138.5090962 C-582.82231646 1108.98850126 -582.87121721 1079.46790111 -582.91583421 1049.94729303 C-582.93825112 1035.11787559 -582.96138063 1020.28845934 -582.98518395 1005.45904407 C-582.98877043 1003.22209785 -582.99233656 1000.9851516 -582.99590184 998.74820535 C-583.05097455 964.30676251 -583.1213197 929.86543417 -583.23596191 895.4241333 C-583.23842609 894.68374602 -583.24089027 893.94335875 -583.24342912 893.18053549 C-583.28325127 881.24347663 -583.32435644 869.30642219 -583.36563193 857.36936828 C-583.48451427 822.98240563 -583.59389214 788.59553117 -583.64051628 754.20838356 C-583.64147991 753.50107467 -583.64244354 752.79376578 -583.64343638 752.06502329 C-583.6644213 736.53697632 -583.68052813 721.00892826 -583.69201769 705.48087148 C-583.69672681 699.2326759 -583.70213798 692.98448096 -583.70779037 686.73628616 C-583.70839206 686.05245325 -583.70899375 685.36862033 -583.70961367 684.66406521 C-583.72934178 662.63943189 -583.80619278 640.61545342 -583.91307975 618.59108431 C-584.02350089 595.78301148 -584.07024822 572.97547896 -584.04302479 550.16709577 C-584.02932082 537.01613935 -584.06594286 523.86755471 -584.17435578 510.71702608 C-584.24182957 501.93323848 -584.24396852 493.15100471 -584.19297264 484.36711003 C-584.16577627 479.36031387 -584.16699391 474.35800223 -584.24789728 469.3516864 C-584.72424117 438.10864468 -584.72424117 438.10864468 -578.02993369 430.6212666 C-574.36274027 427.39755762 -570.48865752 425.04774671 -566.07154582 422.99353106 C-563.37992901 421.70260866 -561.14134867 420.00174945 -558.82421875 418.1328125 C-557.44687111 417.12806823 -556.0680038 416.12540333 -554.6875 415.125 C-547.89637129 410.1622521 -541.17845525 405.11329775 -534.5 400 C-527.11367991 394.34634038 -519.66805268 388.78529611 -512.1640625 383.2890625 C-506.22328567 378.92722968 -500.3524674 374.47945452 -494.5 370 C-487.11358208 364.34646605 -479.66805534 358.78529806 -472.1640625 353.2890625 C-466.22328567 348.92722968 -460.3524674 344.47945452 -454.5 340 C-447.11358208 334.34646605 -439.66805534 328.78529806 -432.1640625 323.2890625 C-426.22328567 318.92722968 -420.3524674 314.47945452 -414.5 310 C-407.11358208 304.34646605 -399.66805534 298.78529806 -392.1640625 293.2890625 C-386.22328567 288.92722968 -380.3524674 284.47945452 -374.5 280 C-367.11358208 274.34646605 -359.66805534 268.78529806 -352.1640625 263.2890625 C-346.22328567 258.92722968 -340.3524674 254.47945452 -334.5 250 C-327.11358208 244.34646605 -319.66805534 238.78529806 -312.1640625 233.2890625 C-306.22328567 228.92722968 -300.3524674 224.47945452 -294.5 220 C-287.11358208 214.34646605 -279.66805534 208.78529806 -272.1640625 203.2890625 C-266.22328567 198.92722968 -260.3524674 194.47945452 -254.5 190 C-247.11358208 184.34646605 -239.66805534 178.78529806 -232.1640625 173.2890625 C-226.22328567 168.92722968 -220.3524674 164.47945452 -214.5 160 C-207.11358208 154.34646605 -199.66805534 148.78529806 -192.1640625 143.2890625 C-186.22328567 138.92722968 -180.3524674 134.47945452 -174.5 130 C-167.11358208 124.34646605 -159.66805534 118.78529806 -152.1640625 113.2890625 C-146.22328567 108.92722968 -140.3524674 104.47945452 -134.5 100 C-127.11358208 94.34646605 -119.66805534 88.78529806 -112.1640625 83.2890625 C-106.22328567 78.92722968 -100.3524674 74.47945452 -94.5 70 C-87.11358208 64.34646605 -79.66805534 58.78529806 -72.1640625 53.2890625 C-66.22328567 48.92722968 -60.3524674 44.47945452 -54.5 40 C-47.12523087 34.35538199 -39.69234958 28.80169908 -32.19921875 23.31542969 C-24.98399622 18.01921382 -17.86685016 12.59760676 -10.76367188 7.15234375 C-9.92384766 6.50910156 -9.08402344 5.86585938 -8.21875 5.203125 C-7.47560547 4.63239258 -6.73246094 4.06166016 -5.96679688 3.47363281 C-1.33068257 0 -1.33068257 0 0 0 Z " fill="#34A852" transform="translate(2560,495)"/>
<path d="M0 0 C3.59352492 0.00848559 7.18544018 -0.02033475 10.77880859 -0.05200195 C31.31507592 -0.1151054 51.59037809 2.02788648 71.36865234 7.75854492 C72.44203857 8.06139404 73.5154248 8.36424316 74.62133789 8.67626953 C77.75344163 9.57478378 80.8746504 10.50317481 83.99365234 11.44604492 C84.85587402 11.70192383 85.7180957 11.95780273 86.60644531 12.22143555 C116.89078087 21.38714781 145.33885808 37.8377144 169.99365234 57.44604492 C171.01716797 58.24526367 172.04068359 59.04448242 173.09521484 59.86791992 C188.96542585 72.74452523 204.07066255 87.83902343 215.99365234 104.44604492 C216.81986362 105.54514236 217.64802415 106.64277695 218.47802734 107.73901367 C239.53040532 135.90952798 253.99532677 169.48578287 261.68115234 203.69604492 C261.87153076 204.526604 262.06190918 205.35716309 262.25805664 206.21289062 C266.37037419 225.4868011 267.47365726 244.77696724 267.61987305 264.42675781 C267.64857929 266.93943354 267.67825624 269.45209833 267.70881653 271.9647522 C267.79376193 279.41384743 267.8539307 286.86293766 267.90499356 294.31232539 C267.91945632 296.42201696 267.93439539 298.53170475 267.94940925 300.64139247 C268.04219622 313.80603996 268.12203177 326.97073251 268.1726656 340.13561344 C268.18450872 343.16186153 268.19651874 346.18810888 268.20874023 349.21435547 C268.21176532 349.96626458 268.2147904 350.7181737 268.21790715 351.49286794 C268.26907125 363.70781326 268.39265458 375.92095162 268.5448092 388.13501234 C268.70041262 400.73091941 268.78751805 413.32589461 268.80925626 425.92275423 C268.82318797 432.97431187 268.86684527 440.02287636 268.98848915 447.07347298 C269.10263592 453.69601715 269.12425346 460.31440063 269.08447075 466.93811417 C269.08463212 469.35936004 269.11533577 471.78083765 269.17972565 474.20122719 C269.62726185 491.98038838 269.62726185 491.98038838 265.21040893 497.79267573 C260.96121632 501.99385999 256.210729 505.21449758 251.06638277 508.22026241 C248.50249082 509.73651068 246.16427228 511.48204542 243.81787109 513.31323242 C242.44052345 514.31797669 241.06165614 515.32064159 239.68115234 516.32104492 C232.89002364 521.28379282 226.17210759 526.33274717 219.49365234 531.44604492 C212.10733225 537.09970454 204.66170502 542.66074881 197.15771484 548.15698242 C191.21693801 552.51881525 185.34611974 556.96659041 179.49365234 561.44604492 C172.10723443 567.09957887 164.66170769 572.66074686 157.15771484 578.15698242 C151.21693801 582.51881525 145.34611974 586.96659041 139.49365234 591.44604492 C132.10723443 597.09957887 124.66170769 602.66074686 117.15771484 608.15698242 C111.21693801 612.51881525 105.34611974 616.96659041 99.49365234 621.44604492 C92.10723443 627.09957887 84.66170769 632.66074686 77.15771484 638.15698242 C71.21693801 642.51881525 65.34611974 646.96659041 59.49365234 651.44604492 C52.10723443 657.09957887 44.66170769 662.66074686 37.15771484 668.15698242 C31.21693801 672.51881525 25.34611974 676.96659041 19.49365234 681.44604492 C12.10723443 687.09957887 4.66170769 692.66074686 -2.84228516 698.15698242 C-8.78306199 702.51881525 -14.65388026 706.96659041 -20.50634766 711.44604492 C-27.89276557 717.09957887 -35.33829231 722.66074686 -42.84228516 728.15698242 C-48.78306199 732.51881525 -54.65388026 736.96659041 -60.50634766 741.44604492 C-67.89276557 747.09957887 -75.33829231 752.66074686 -82.84228516 758.15698242 C-88.78306199 762.51881525 -94.65388026 766.96659041 -100.50634766 771.44604492 C-107.89276557 777.09957887 -115.33829231 782.66074686 -122.84228516 788.15698242 C-128.78306199 792.51881525 -134.65388026 796.96659041 -140.50634766 801.44604492 C-147.89276557 807.09957887 -155.33829231 812.66074686 -162.84228516 818.15698242 C-168.78306199 822.51881525 -174.65388026 826.96659041 -180.50634766 831.44604492 C-187.89276557 837.09957887 -195.33829231 842.66074686 -202.84228516 848.15698242 C-208.78306199 852.51881525 -214.65388026 856.96659041 -220.50634766 861.44604492 C-227.89276557 867.09957887 -235.33829231 872.66074686 -242.84228516 878.15698242 C-248.78306199 882.51881525 -254.65388026 886.96659041 -260.50634766 891.44604492 C-267.88155963 897.09100189 -275.31321824 902.6474026 -282.80932617 908.13061523 C-290.00727894 913.41027241 -297.09495595 918.8309803 -304.15478516 924.29370117 C-304.99138672 924.93694336 -305.82798828 925.58018555 -306.68994141 926.24291992 C-307.42784912 926.81365234 -308.16575684 927.38438477 -308.92602539 927.97241211 C-310.89417147 929.36658295 -312.84223184 930.39534039 -315.00634766 931.44604492 C-315.19484513 859.40310024 -315.3697445 787.36012595 -315.47212219 715.31700134 C-315.47364082 714.25107254 -315.47515945 713.18514373 -315.47672409 712.08691405 C-315.50964458 688.92249717 -315.5401168 665.75807768 -315.56806628 642.59365428 C-315.58178722 631.23414785 -315.59604928 619.87464212 -315.6105957 608.51513672 C-315.61203405 607.38471763 -315.6134724 606.25429854 -315.61495434 605.08962433 C-315.66184554 568.43656288 -315.744482 531.78368772 -315.84561708 495.13073916 C-315.94934113 457.47118915 -316.01707948 419.81174228 -316.03941255 382.15205184 C-316.04258234 376.83527406 -316.04616435 371.51849663 -316.04999733 366.20171928 C-316.05073898 365.15528118 -316.05148064 364.10884307 -316.05224476 363.03069472 C-316.0652536 346.17258833 -316.11629859 329.31480045 -316.18150003 312.45682405 C-316.24620944 295.51682547 -316.27100825 278.57714326 -316.25486281 261.63702536 C-316.24648381 251.56711169 -316.26890973 241.49835418 -316.33512063 231.42864888 C-316.37631801 224.70490762 -316.37768628 217.98192487 -316.34649761 211.25813158 C-316.32986077 207.42454587 -316.33070273 203.5931485 -316.38006266 199.75979603 C-316.43283383 195.63017868 -316.40055415 191.50557694 -316.35987377 187.37582493 C-316.38877092 186.18497855 -316.41766807 184.99413218 -316.44744089 183.76719955 C-316.33387131 178.68913059 -316.08156483 175.65680097 -312.63494245 171.775707 C-309.85041025 169.47019838 -307.02170257 167.43658071 -304.00634766 165.44604492 C-302.40912717 164.25755082 -300.81679111 163.06241536 -299.23291016 161.85620117 C-297.70096808 160.73769219 -296.16709279 159.62182645 -294.63134766 158.50854492 C-288.08896648 153.72745058 -281.6188534 148.87803051 -275.21337891 143.91479492 C-271.67305081 141.17843695 -268.09070196 138.499327 -264.50634766 135.82104492 C-258.20409932 131.11163878 -251.94362553 126.34981619 -245.69384766 121.57104492 C-238.24383568 115.87834026 -230.73500251 110.27583644 -223.17114258 104.7355957 C-217.23006936 100.37367023 -211.35904776 95.92567755 -205.50634766 91.44604492 C-198.11486369 85.78863344 -190.66826481 80.21788563 -183.15283203 74.72631836 C-179.09370125 71.75152185 -175.07211699 68.73956411 -171.10009766 65.64916992 C-135.58194219 38.03767666 -98.35566802 16.40994578 -54.25634766 5.63354492 C-53.51497559 5.45073975 -52.77360352 5.26793457 -52.00976562 5.07958984 C-49.35147405 4.46932826 -46.68729082 3.94859084 -44.00634766 3.44604492 C-43.36086975 3.3210965 -42.71539185 3.19614807 -42.050354 3.06741333 C-28.03822069 0.42480361 -14.23614822 -0.05100148 0 0 Z " fill="#FABB04" transform="translate(2293.00634765625,-0.446044921875)"/>
<path d="M0 0 C3.60450784 0.00849376 7.20741543 -0.02034824 10.81176758 -0.05200195 C80.09366074 -0.26176534 135.80544132 32.69698625 189.1015625 73.48388672 C194.83668277 77.8662098 200.6158558 82.18113718 206.4387207 86.44604492 C214.06612087 92.03266912 221.59516635 97.73880831 229.1027832 103.48510742 C234.83774798 107.86668818 240.61631633 112.1814745 246.4387207 116.44604492 C254.06612087 122.03266912 261.59516635 127.73880831 269.1027832 133.48510742 C275.59541754 138.44555666 282.15313195 143.30905381 288.74609375 148.13500977 C295.87478338 153.36665056 302.90355952 158.72570798 309.91137695 164.11791992 C310.7415332 164.7547168 311.57168945 165.39151367 312.42700195 166.04760742 C313.15443604 166.60786621 313.88187012 167.168125 314.63134766 167.74536133 C316.95264445 169.59052318 316.95264445 169.59052318 320.03678858 170.78170276 C323.3832984 173.8542237 323.40308408 174.46423134 323.68391168 178.80315709 C323.71251784 181.12733088 323.70739412 183.45205196 323.67700768 185.77620316 C323.68393074 187.06060579 323.69085381 188.34500842 323.69798666 189.66833234 C323.71645399 193.2522617 323.69730947 196.83517483 323.67231786 200.4190287 C323.65175792 204.31065664 323.66592865 208.2021788 323.6757828 212.09382701 C323.68824356 218.92047756 323.67833199 225.74681488 323.65395355 232.57342911 C323.61780418 242.72435161 323.61593301 252.87507582 323.62120548 263.02605096 C323.62909692 280.09991873 323.60901012 297.17364739 323.57310104 314.24747467 C323.53762606 331.1581618 323.51451088 348.06879101 323.50798416 364.97951508 C323.50757172 366.03009098 323.50715929 367.08066688 323.50673435 368.16307841 C323.50470441 373.49819657 323.50289609 378.83331478 323.50117309 384.16843304 C323.48856311 421.97910876 323.44811805 459.78970875 323.39135742 497.6003418 C323.33627114 534.3379679 323.29375952 571.0755733 323.26831055 607.81323242 C323.26712681 609.51118484 323.26712681 609.51118484 323.26591916 611.24343932 C323.25800819 622.61089783 323.25035329 633.9783565 323.24288601 645.34581531 C323.22766781 668.50363628 323.2107403 691.6614559 323.19277954 714.8192749 C323.1919558 715.88408635 323.19113206 716.94889779 323.19028336 718.04597625 C323.13505849 789.17936397 323.03998486 860.31270968 322.9387207 931.44604492 C321.52399152 930.51355003 320.1107013 929.57887184 318.69799805 928.64331055 C317.51722183 927.86292419 317.51722183 927.86292419 316.31259155 927.06677246 C312.59513317 924.52872909 309.08771248 921.74332088 305.5637207 918.94604492 C299.32769341 914.04505263 293.02882041 909.25228557 286.6262207 904.57104492 C279.83709167 899.6055059 273.11724098 894.55939247 266.4387207 889.44604492 C259.81933796 884.37941683 253.16368863 879.37169033 246.4387207 874.44604492 C238.81132054 868.85942072 231.28227506 863.15328154 223.7746582 857.40698242 C218.03969343 853.02540167 212.26112507 848.71061535 206.4387207 844.44604492 C198.81132054 838.85942072 191.28227506 833.15328154 183.7746582 827.40698242 C178.03969343 823.02540167 172.26112507 818.71061535 166.4387207 814.44604492 C158.81132054 808.85942072 151.28227506 803.15328154 143.7746582 797.40698242 C138.03969343 793.02540167 132.26112507 788.71061535 126.4387207 784.44604492 C118.81132054 778.85942072 111.28227506 773.15328154 103.7746582 767.40698242 C98.03969343 763.02540167 92.26112507 758.71061535 86.4387207 754.44604492 C78.81132054 748.85942072 71.28227506 743.15328154 63.7746582 737.40698242 C58.03969343 733.02540167 52.26112507 728.71061535 46.4387207 724.44604492 C38.81132054 718.85942072 31.28227506 713.15328154 23.7746582 707.40698242 C18.03969343 703.02540167 12.26112507 698.71061535 6.4387207 694.44604492 C-1.18867946 688.85942072 -8.71772494 683.15328154 -16.2253418 677.40698242 C-21.96030657 673.02540167 -27.73887493 668.71061535 -33.5612793 664.44604492 C-41.18867946 658.85942072 -48.71772494 653.15328154 -56.2253418 647.40698242 C-61.96030657 643.02540167 -67.73887493 638.71061535 -73.5612793 634.44604492 C-81.18867946 628.85942072 -88.71772494 623.15328154 -96.2253418 617.40698242 C-101.96030657 613.02540167 -107.73887493 608.71061535 -113.5612793 604.44604492 C-121.18867946 598.85942072 -128.71772494 593.15328154 -136.2253418 587.40698242 C-141.96030657 583.02540167 -147.73887493 578.71061535 -153.5612793 574.44604492 C-161.18867946 568.85942072 -168.71772494 563.15328154 -176.2253418 557.40698242 C-181.96030657 553.02540167 -187.73887493 548.71061535 -193.5612793 544.44604492 C-200.28625135 539.52039649 -206.94175708 534.51249504 -213.5612793 529.44604492 C-220.97369455 523.77367488 -228.43352275 518.17474 -235.9675293 512.66479492 C-237.39049115 511.6232184 -238.79830191 510.56065843 -240.19101334 509.47896671 C-242.44488829 507.88261586 -244.56278957 506.61713599 -246.98156357 505.32357693 C-252.3216457 502.2480532 -257.72118415 498.99126296 -259.98455334 493.00352597 C-261.46551432 485.73392501 -261.10912923 478.32983366 -260.94116211 470.95214844 C-260.9431996 468.46542902 -260.95223721 465.97870702 -260.9677124 463.49203491 C-260.9871015 457.45414455 -260.93289517 451.42101672 -260.84480992 445.38407857 C-260.74542897 438.32491028 -260.73436425 431.26639218 -260.72719488 424.20662808 C-260.71170945 411.58080308 -260.62204838 398.95662144 -260.48803711 386.33154297 C-260.35880675 374.14657774 -260.27342189 361.96247617 -260.24194336 349.77685547 C-260.2400014 349.02874698 -260.23805943 348.28063849 -260.23605862 347.50986005 C-260.2283393 344.50054338 -260.22069088 341.49122654 -260.21319421 338.48190931 C-260.18098492 326.08474719 -260.11206259 313.68775071 -260.03864956 301.29077411 C-260.0221954 298.48954416 -260.00728516 295.68831267 -259.99376011 292.88706708 C-259.95455911 284.87498949 -259.89518749 276.86354253 -259.80640411 268.85181808 C-259.78232494 266.44359622 -259.76430281 264.03530326 -259.75343323 261.62698555 C-259.62545038 235.65788673 -256.27612125 210.41301246 -249.0612793 185.44604492 C-248.72555908 184.27138672 -248.72555908 184.27138672 -248.38305664 183.07299805 C-240.53529253 156.23001101 -227.49528764 130.98906146 -211.0612793 108.44604492 C-210.6384668 107.86483887 -210.2156543 107.28363281 -209.7800293 106.68481445 C-204.48440189 99.46745351 -198.78455199 92.75524939 -192.65893555 86.23120117 C-190.33835732 83.74312256 -188.09869594 81.20678511 -185.8737793 78.63354492 C-182.21694303 74.51316603 -178.26785425 70.99098971 -174.0612793 67.44604492 C-173.07643555 66.57334961 -172.0915918 65.7006543 -171.0769043 64.80151367 C-155.6853245 51.20224433 -139.13959292 40.16327411 -121.0612793 30.44604492 C-120.3472998 30.06077637 -119.63332031 29.67550781 -118.89770508 29.27856445 C-98.82070005 18.55821055 -77.26189542 10.91520666 -55.1237793 5.75854492 C-53.91165771 5.47297729 -53.91165771 5.47297729 -52.67504883 5.18164062 C-49.81260942 4.54477146 -46.9436889 3.98600338 -44.0612793 3.44604492 C-43.40370636 3.31896149 -42.74613342 3.19187805 -42.06863403 3.0609436 C-28.05047637 0.41971624 -14.24212751 -0.05093682 0 0 Z " fill="#C5221F" transform="translate(259.061279296875,-0.446044921875)"/>
</svg>
