<?xml version="1.0" encoding="UTF-8"?>
<svg version="1.1" xmlns="http://www.w3.org/2000/svg" width="104" height="44">
<path d="M0 0 C3.96 0 7.92 0 12 0 C12.04898437 1.83046875 12.09796875 3.6609375 12.1484375 5.546875 C12.22347053 7.94793196 12.29901813 10.34897288 12.375 12.75 C12.4059375 13.9565625 12.436875 15.163125 12.46875 16.40625 C12.50742188 17.56640625 12.54609375 18.7265625 12.5859375 19.921875 C12.6173584 20.99018555 12.6487793 22.05849609 12.68115234 23.15917969 C12.99786337 25.98096335 13.36040729 27.69042998 15 30 C18.42243314 31.00082535 18.42243314 31.00082535 22 31 C25.24849977 29.27773504 25.24849977 29.27773504 26 26 C26.14986411 24.0093556 26.24828038 22.01464609 26.31640625 20.01953125 C26.35830078 18.85615234 26.40019531 17.69277344 26.44335938 16.49414062 C26.48267578 15.27919922 26.52199219 14.06425781 26.5625 12.8125 C26.60568359 11.58595703 26.64886719 10.35941406 26.69335938 9.09570312 C26.79953014 6.06393808 26.90027764 3.031984 27 0 C31.29 0 35.58 0 40 0 C40.05419305 4.16684313 40.09376961 8.33297365 40.125 12.5 C40.14175781 13.67304688 40.15851562 14.84609375 40.17578125 16.0546875 C40.26689493 32.27292327 40.26689493 32.27292327 35.1875 37.875 C34.46626953 38.70644531 34.46626953 38.70644531 33.73046875 39.5546875 C29.41463433 43.15933475 25.02951952 43.29598332 19.5625 43.3125 C18.28503906 43.32925781 17.00757812 43.34601562 15.69140625 43.36328125 C11.07245708 42.908718 7.77009099 41.65236523 4.35546875 38.46484375 C0.579082 33.52649184 -0.14328249 30.90115432 -0.09765625 24.8046875 C-0.0962413 24.09724396 -0.09482635 23.38980042 -0.09336853 22.66091919 C-0.087766 20.39890331 -0.07521318 18.13698602 -0.0625 15.875 C-0.05748532 14.34244935 -0.05292236 12.80989714 -0.04882812 11.27734375 C-0.03779577 7.51819112 -0.02052952 3.75911228 0 0 Z " fill="#255799" transform="translate(0,1)"/>
<path d="M0 0 C2.74775336 1.6687 4.88232353 3.29430197 6.3125 6.25 C5.19583826 9.59998521 4.56555075 10.04340222 1.75 11.9375 C0.78900391 12.59298828 0.78900391 12.59298828 -0.19140625 13.26171875 C-0.68511719 13.58785156 -1.17882812 13.91398438 -1.6875 14.25 C-5.6875 12.25 -5.6875 12.25 -7.5 11.0625 C-10.85218267 9.81740358 -13.27223016 10.38065859 -16.6875 11.25 C-19.30316442 13.51690916 -19.68984367 15.25903987 -20.5625 18.625 C-20.70750149 22.83004327 -20.02597322 24.78260867 -17.6875 28.25 C-15.14468808 30.2667129 -13.94830405 30.26630025 -10.6875 30.0625 C-7.66863896 29.44811435 -7.66863896 29.44811435 -5.5625 27.625 C-3.6875 26.25 -3.6875 26.25 -1.8125 26.3125 C1.1437527 27.61672913 3.67712398 29.3932578 6.3125 31.25 C5.74986042 34.75509251 4.66064818 36.20268008 1.9375 38.4375 C1.33164063 38.94667969 0.72578125 39.45585938 0.1015625 39.98046875 C-5.18676758 43.73310472 -12.53344026 42.72811785 -18.6875 42.25 C-24.89893634 40.63132114 -29.26583682 36.58509324 -32.6875 31.25 C-35.46958938 24.29477654 -35.56295082 18.10402658 -33.125 11.125 C-30.61848029 5.34756095 -26.99955709 1.88349754 -21.390625 -0.8828125 C-14.75532636 -3.01147767 -6.354847 -3.00024375 0 0 Z " fill="#255799" transform="translate(78.6875,1.75)"/>
<path d="M0 0 C4.29 0 8.58 0 13 0 C13 14.19 13 28.38 13 43 C8.71 43 4.42 43 0 43 C0 28.81 0 14.62 0 0 Z " fill="#255799" transform="translate(91,1)"/>
</svg>
